<svg width="67" height="13" viewBox="0 0 67 13" fill="none" xmlns="http://www.w3.org/2000/svg">
<path d="M5.50684 10.3701C2.64941 10.3701 0.878906 8.3877 0.878906 5.18848V5.1748C0.878906 1.97559 2.64258 0 5.50684 0C7.84473 0 9.59473 1.49023 9.78613 3.5752V3.65723H7.77637V3.60938C7.56445 2.50195 6.68262 1.75 5.50684 1.75C3.95508 1.75 2.99121 3.05566 2.99121 5.1748V5.18848C2.99121 7.30762 3.95508 8.62012 5.51367 8.62012C6.69629 8.62012 7.55078 7.92969 7.76953 6.87695L7.7832 6.82227H9.79297L9.78613 6.89746C9.57422 8.96191 7.88574 10.3701 5.50684 10.3701Z" fill="black" fill-opacity="0.88"/>
<path d="M14.8379 10.2744C12.5205 10.2744 11.126 8.80469 11.126 6.35742V6.34375C11.126 3.91699 12.541 2.42676 14.8379 2.42676C17.1348 2.42676 18.5498 3.91016 18.5498 6.34375V6.35742C18.5498 8.81152 17.1553 10.2744 14.8379 10.2744ZM14.8379 8.70898C15.8975 8.70898 16.5059 7.84082 16.5059 6.35742V6.34375C16.5059 4.87402 15.8906 3.99219 14.8379 3.99219C13.7783 3.99219 13.1699 4.87402 13.1699 6.34375V6.35742C13.1699 7.84082 13.7715 8.70898 14.8379 8.70898Z" fill="black" fill-opacity="0.88"/>
<path d="M20.1768 10.1172V2.59082H22.1729V3.7666H22.2959C22.6172 2.91895 23.3965 2.42676 24.3809 2.42676C25.4062 2.42676 26.165 2.94629 26.4727 3.81445H26.5957C26.9375 2.98047 27.8125 2.42676 28.8652 2.42676C30.3623 2.42676 31.2988 3.39746 31.2988 4.94922V10.1172H29.3027V5.44824C29.3027 4.53906 28.8926 4.08105 28.0586 4.08105C27.252 4.08105 26.7324 4.67578 26.7324 5.48926V10.1172H24.7363V5.35938C24.7363 4.55273 24.2783 4.08105 23.499 4.08105C22.7197 4.08105 22.1729 4.7168 22.1729 5.57812V10.1172H20.1768Z" fill="black" fill-opacity="0.88"/>
<path d="M33.2334 12.6123V2.59082H35.2295V3.75293H35.3525C35.7422 2.94629 36.542 2.46777 37.6084 2.46777C39.4883 2.46777 40.6641 3.94434 40.6641 6.34375V6.35742C40.6641 8.77734 39.5156 10.2334 37.6084 10.2334C36.5762 10.2334 35.7354 9.73438 35.3525 8.91406H35.2295V12.6123H33.2334ZM36.9248 8.5791C37.9775 8.5791 38.6338 7.73828 38.6338 6.35742V6.34375C38.6338 4.96289 37.9844 4.12207 36.9248 4.12207C35.8721 4.12207 35.209 4.96289 35.209 6.34375V6.35742C35.209 7.73828 35.8789 8.5791 36.9248 8.5791Z" fill="black" fill-opacity="0.88"/>
<path d="M44.3486 10.2334C42.9131 10.2334 41.8945 9.34473 41.8945 7.97754V7.96387C41.8945 6.61035 42.9404 5.81738 44.8135 5.70801L46.6318 5.59863V4.97656C46.6318 4.32715 46.1875 3.95801 45.3672 3.95801C44.6494 3.95801 44.1914 4.21094 44.0342 4.65527L44.0205 4.68262H42.1748L42.1816 4.62109C42.3389 3.30176 43.583 2.42676 45.4766 2.42676C47.4727 2.42676 48.6006 3.37012 48.6006 4.97656V10.1172H46.6318V9.11914H46.5088C46.126 9.81641 45.333 10.2334 44.3486 10.2334ZM43.8428 7.85449C43.8428 8.42871 44.3281 8.77734 45.0186 8.77734C45.9414 8.77734 46.6318 8.16895 46.6318 7.37598V6.82227L45.1143 6.91797C44.2598 6.97266 43.8428 7.29395 43.8428 7.84082V7.85449Z" fill="black" fill-opacity="0.88"/>
<path d="M50.5557 10.1172V2.59082H52.5518V3.75293H52.6748C53.0166 2.93945 53.7617 2.42676 54.835 2.42676C56.5098 2.42676 57.4121 3.45215 57.4121 5.25V10.1172H55.416V5.70117C55.416 4.6416 54.9785 4.08105 54.0352 4.08105C53.1123 4.08105 52.5518 4.74414 52.5518 5.7627V10.1172H50.5557Z" fill="black" fill-opacity="0.88"/>
<path d="M60.0371 12.7695C59.8047 12.7695 59.5518 12.7627 59.3193 12.749V11.2451C59.4561 11.2588 59.6543 11.2656 59.8389 11.2656C60.5498 11.2656 60.96 10.9922 61.1035 10.4043L61.1719 10.1172L58.5264 2.59082H60.7207L62.2998 8.29199H62.4365L64.0156 2.59082H66.1211L63.5576 10.1104C62.8877 12.0996 61.8965 12.7695 60.0371 12.7695Z" fill="black" fill-opacity="0.88"/>
</svg>
